# xmcd
#
# Track frame offsets: 
#        150
#        3520
#        152524
#        342541
#
# Disc length: 4649 seconds
#
# Revision: 0
# Processed by: cddbd v1.5.2PL0 Copyright (c) Steve Scherf et al.
# Submitted via: ExactAudioCopy v0.95b2
#
DISCID=2a122704
DTITLE=Gabriele - Gˆttliches Prophetisches Heilen Nr.6, CD24
DYEAR=2014
DGENRE=Vocal
TTITLE0=Gott, die groﬂe Liebe, wohnt in deiner Seele, Teil 1
TTITLE1=Gott, die groﬂe Liebe, wohnt in deiner Seele, Teil 2
TTITLE2=Gott, die groﬂe Liebe, wohnt in deiner Seele, Teil 3
TTITLE3=Gott, die groﬂe Liebe, wohnt in deiner Seele, Teil 4
EXTD=
EXTT0=
EXTT1=
EXTT2=
EXTT3=
PLAYORDER=
